<?xml version="1.0" standalone="no"?>
<!DOCTYPE svg PUBLIC "-//W3C//DTD SVG 20010904//EN"
 "http://www.w3.org/TR/2001/REC-SVG-20010904/DTD/svg10.dtd">
<svg version="1.0" xmlns="http://www.w3.org/2000/svg"
 width="886.000000pt" height="886.000000pt" viewBox="0 0 886.000000 886.000000"
 preserveAspectRatio="xMidYMid meet">
<metadata>
Created by potrace 1.14, written by Peter Selinger 2001-2017
</metadata>
<g transform="translate(0.000000,886.000000) scale(0.100000,-0.100000)"
fill="#000000" stroke="none">
<path d="M4363 7323 c-7 -3 -13 -9 -13 -14 0 -6 4 -8 9 -5 5 4 11 3 13 -1 1
-5 41 -21 87 -36 125 -42 211 -104 315 -227 66 -77 185 -274 173 -286 -2 -2
-21 10 -43 27 -219 175 -555 327 -859 388 -311 62 -663 36 -940 -69 -157 -60
-330 -146 -462 -231 -340 -218 -754 -640 -912 -930 -66 -122 -169 -363 -223
-524 -27 -82 -51 -157 -53 -165 -2 -8 -13 -50 -24 -92 -12 -42 -23 -92 -25
-110 -3 -18 -12 -72 -20 -119 -21 -110 -32 -262 -30 -402 3 -159 3 -159 14
-152 5 3 8 -7 5 -25 -4 -34 7 -45 33 -31 14 7 21 32 31 102 18 128 27 148 36
84 12 -88 56 -297 82 -390 13 -49 33 -119 43 -155 9 -36 34 -110 55 -165 20
-55 45 -128 55 -162 18 -64 31 -88 62 -111 16 -12 15 -16 -17 -61 -19 -27 -35
-51 -35 -54 0 -4 -14 -28 -30 -54 -65 -102 -105 -296 -88 -433 39 -322 360
-601 690 -600 71 0 182 24 215 45 35 23 47 18 61 -27 23 -72 88 -198 103 -198
5 0 9 -8 9 -18 0 -29 115 -147 193 -198 70 -47 253 -144 332 -176 250 -103
651 -194 945 -213 123 -8 493 -8 573 0 87 9 255 34 297 45 19 5 76 18 125 30
83 18 147 36 375 103 245 73 430 160 568 267 95 73 175 155 351 358 63 73 117
131 120 129 82 -45 106 -50 246 -50 151 -1 200 10 316 69 88 44 193 133 251
214 121 166 181 430 148 645 -15 95 -16 102 -35 165 -9 30 -19 65 -22 76 -3
12 11 66 30 120 20 55 42 124 51 154 21 74 46 272 47 373 l0 82 15 -40 c9 -22
21 -69 28 -105 14 -73 36 -89 72 -49 17 19 19 35 17 168 -2 153 -5 184 -47
421 -62 352 -118 524 -270 828 -102 205 -288 476 -430 627 -36 38 -66 71 -66
74 0 9 -198 187 -265 237 -239 180 -595 339 -830 369 -16 3 -55 9 -85 15 -114
22 -369 7 -489 -29 -19 -6 -37 -9 -39 -7 -8 9 166 139 228 169 65 32 68 34 95
36 28 2 15 19 -20 25 -84 16 -249 -80 -404 -233 l-78 -78 -28 66 c-16 36 -34
73 -42 82 -7 8 -13 19 -13 23 0 13 -77 120 -130 181 -91 104 -238 205 -296
205 -8 0 -23 4 -32 9 -21 11 -103 20 -119 14z m282 -1178 c111 -29 240 -108
269 -164 21 -39 54 -38 71 3 11 26 29 39 92 69 99 46 169 61 250 53 110 -11
220 -73 334 -188 53 -54 169 -203 169 -218 0 -5 6 -15 13 -22 20 -22 86 -149
150 -288 30 -67 197 -486 197 -496 0 -4 22 -66 49 -138 27 -72 59 -160 71
-196 12 -36 28 -78 35 -95 21 -49 75 -248 70 -254 -3 -3 -16 6 -29 19 -63 68
-211 173 -294 211 -186 86 -424 121 -627 95 -147 -19 -393 -157 -524 -294 -62
-65 -119 -157 -135 -217 -15 -54 -52 -298 -55 -362 -1 -7 -28 14 -61 47 -53
52 -65 60 -99 60 -42 0 -96 -34 -84 -53 3 -7 3 -9 -2 -5 -4 4 -14 3 -22 -3
-10 -9 -13 -8 -14 2 -12 214 -71 329 -254 496 -188 170 -506 269 -835 258
-150 -5 -201 -17 -295 -70 -107 -60 -265 -227 -344 -365 -30 -52 -120 -273
-115 -281 3 -5 1 -9 -4 -9 -5 0 -20 -37 -33 -81 -22 -77 -24 -80 -30 -48 -14
82 11 328 53 509 12 52 22 97 23 100 15 83 148 390 163 376 2 -3 4 -55 3 -115
-2 -125 12 -189 43 -201 30 -11 44 5 83 90 86 187 290 590 373 734 170 297
285 462 445 639 108 121 158 166 275 249 70 50 220 127 285 147 107 32 230 34
340 6z m1154 -1702 c36 -7 72 -11 80 -8 9 3 12 3 8 -1 -4 -5 15 -14 44 -21
118 -30 278 -131 394 -247 132 -133 183 -212 231 -354 41 -124 45 -261 10
-376 -23 -75 -97 -222 -138 -277 -48 -64 -196 -208 -262 -254 -98 -69 -246
-143 -320 -160 -10 -2 -33 -9 -50 -14 -58 -19 -91 -23 -197 -27 -369 -11 -631
213 -738 631 -25 98 -35 290 -20 405 15 114 55 268 89 335 46 95 209 243 347
317 116 62 358 85 522 51z m-2169 -72 c30 -5 66 -12 80 -15 14 -3 41 -9 60
-12 50 -10 227 -82 275 -113 171 -109 294 -259 325 -396 14 -62 15 -245 1
-307 -25 -112 -98 -293 -143 -353 -179 -243 -396 -388 -692 -464 -43 -12 -108
-23 -145 -27 -36 -3 -83 -7 -103 -9 -56 -5 -184 13 -263 36 -204 61 -347 207
-400 409 -17 64 -23 252 -10 310 3 14 10 52 15 85 25 153 169 466 280 610 72
92 169 173 270 225 71 36 285 46 450 21z m3090 -480 c0 -15 8 -35 18 -43 25
-22 89 -21 111 1 11 11 21 17 24 15 2 -2 27 0 55 6 100 22 224 -18 312 -102
193 -182 257 -539 151 -842 -75 -213 -250 -373 -456 -416 -116 -24 -286 -9
-324 29 -16 16 -82 45 -86 39 -11 -20 -112 -142 -139 -167 -20 -19 -36 -37
-36 -41 0 -17 -238 -262 -314 -322 -89 -72 -198 -130 -346 -186 -131 -49 -378
-126 -474 -147 -10 -3 -53 -13 -95 -24 -257 -65 -411 -81 -736 -76 -250 4
-318 8 -429 25 -32 5 -63 7 -67 4 -5 -3 -9 0 -9 5 0 6 -14 11 -31 11 -36 0
-261 50 -364 81 -38 12 -117 39 -175 61 -58 22 -109 40 -115 41 -5 1 -12 4
-15 8 -3 3 -50 28 -105 55 -55 28 -111 57 -124 65 -79 47 -185 153 -228 229
-20 36 -41 68 -47 72 -6 4 -8 8 -3 8 4 0 -2 18 -13 40 -11 21 -20 45 -20 52 0
7 -15 29 -33 49 -18 20 -31 41 -30 46 9 25 -21 23 -75 -5 -143 -73 -316 -67
-482 18 -75 38 -158 109 -221 190 -33 42 -89 154 -89 179 0 6 -3 11 -7 11 -22
0 -21 220 1 291 9 30 18 62 20 72 1 9 8 23 14 29 7 7 12 16 12 21 0 12 66 122
99 166 91 117 245 241 341 274 99 33 123 35 205 12 74 -21 85 -32 95 -100 4
-33 16 -78 26 -100 14 -32 17 -74 19 -210 3 -193 13 -246 73 -365 72 -144 203
-254 370 -309 385 -128 905 26 1215 360 42 45 77 88 77 95 0 7 6 17 13 21 36
22 118 205 152 341 13 51 29 100 36 108 6 8 9 14 6 14 -3 0 7 15 24 32 16 18
29 37 30 43 0 5 13 20 28 32 l28 22 74 -78 c81 -85 87 -99 109 -251 10 -72 36
-174 48 -195 4 -5 8 -18 9 -28 4 -26 61 -135 103 -197 82 -120 209 -227 331
-278 70 -29 88 -34 157 -47 15 -3 37 -8 50 -10 51 -12 213 -6 293 10 190 39
408 145 533 259 21 20 40 36 42 36 5 0 99 102 141 152 85 103 160 255 188 381
18 82 19 199 3 279 -10 50 -10 62 5 93 9 20 17 46 17 59 0 12 3 26 6 29 12 12
24 -4 24 -32z"/>
<path d="M5343 4903 c-28 -5 -44 -25 -34 -42 10 -16 115 -29 245 -32 79 -1
101 2 114 15 14 14 14 18 4 25 -8 5 -13 12 -12 17 0 5 -13 12 -30 15 -35 7
-251 9 -287 2z"/>
<path d="M3655 4824 c-156 -31 -173 -35 -189 -47 -11 -8 -15 -19 -10 -30 8
-22 34 -21 192 2 132 19 162 33 144 68 -13 23 -47 25 -137 7z"/>
<path d="M5452 3731 c-17 -38 -23 -114 -25 -314 -2 -183 -1 -187 88 -187 73 0
77 10 76 189 -1 146 -9 285 -17 309 -2 7 -8 10 -14 7 -5 -3 -10 1 -10 9 0 9
-9 16 -20 16 -11 0 -20 -5 -20 -12 0 -9 -3 -9 -12 0 -19 19 -32 14 -46 -17z"/>
<path d="M3590 3737 c-32 -15 -40 -26 -39 -57 0 -46 -12 -354 -15 -392 -2 -21
-1 -38 4 -38 4 0 7 -7 6 -16 -2 -30 29 -40 81 -26 87 24 85 17 79 257 -5 222
-7 259 -17 270 -13 12 -74 13 -99 2z"/>
<path d="M4497 2445 c-46 -13 -77 -31 -77 -44 0 -3 7 -14 14 -24 13 -17 20
-17 98 -6 76 11 129 34 111 48 -5 3 -8 13 -8 21 0 20 -74 23 -138 5z"/>
</g>
</svg>
